# xmcd CD database file
#
# Track frame offsets:
#	225
#	12289
#	26054
#	36308
#	48575
#	64362
#	79204
#	97894
#	113337
#	125292
#	139566
#	153857
#	167208
#	181767
#	192977
#	206005
#	217787
#	233057
#	245595
#	261843
#	272850
#	288337
#
# Disc length: 4045 seconds
#
# Revision: 0
# Processed by: cddbd v1.4PL0 Copyright (c) Steve Scherf et al.
# Submitted via: Feurio! 1.65.3ß - http://www.feurio.com
#
DISCID=330fca16
DTITLE=Hoyt Axton  - Rusty old halo and everbody's going on the road
DYEAR=1980
DGENRE=Country
TTITLE0=rusty old halo
TTITLE1=della and the dealer
TTITLE2=the hotel riz
TTITLE3=so hard
TTITLE4=evangelina
TTITLE5=she was a torpedo
TTITLE6=viva villa
TTITLE7=wild bull rider
TTITLE8=in a young girl's mind
TTITLE9=gotta keep rollin
TTITLE10=everbody's going on the road
TTITLE11=betty la rue
TTITLE12=boozers and losers
TTITLE13=polititians
TTITLE14=when you dance you do not tango
TTITLE15=smile as you go by
TTITLE16=where did the money go
TTITLE17=some people ride
TTITLE18=midnight in memphis
TTITLE19=ease your pain
TTITLE20=battle of new orleans
TTITLE21=this house
EXTD=
EXTT0=
EXTT1=
EXTT2=
EXTT3=
EXTT4=
EXTT5=
EXTT6=
EXTT7=
EXTT8=
EXTT9=
EXTT10=
EXTT11=
EXTT12=
EXTT13=
EXTT14=
EXTT15=
EXTT16=
EXTT17=
EXTT18=
EXTT19=
EXTT20=
EXTT21=
PLAYORDER=
